# xmcd
#
# Track frame offsets:
#	150
#	5325
#	25097
#	42685
#	61952
#	97290
#	103202
#	131542
#	139840
#	156587
#	177702
#	201065
#	209062
#	230605
#	258952
#	275877
#
# Disc length: 3915 seconds
#
# Revision: 0
# Processed by: cddbd v1.4PL0 Copyright (c) Steve Scherf et al.
# Submitted via: dBpowerAMP V4.0
#
DISCID=010f4910
DTITLE=Dave Hollister - Ghetto Hymns
DYEAR=1999
DGENRE=R&B
TTITLE0=Ghetto Hymns (The Introduction)
TTITLE1=Came In The Door Pimpin'
TTITLE2=My Favorite Girl
TTITLE3=Round And Round
TTITLE4=Baby Mama Drama/It's Alright (Bonus Track)
TTITLE5=Cheaterlude (Interlude)
TTITLE6=Can't Stay
TTITLE7=Bring It To Dave (Interlude)
TTITLE8=Call On Me
TTITLE9=Missin' You
TTITLE10=Keep Forgettin'
TTITLE11=Come Inside My Room (Interlude)
TTITLE12=The Program
TTITLE13=My Feelin's 
TTITLE14=Respect 2 Him (Outro)
TTITLE15=I'm Sorry [My Favorite Girl Remix]
EXTD=
EXTT0=
EXTT1=
EXTT2=
EXTT3=
EXTT4=
EXTT5=
EXTT6=
EXTT7=
EXTT8=
EXTT9=
EXTT10=
EXTT11=
EXTT12=
EXTT13=
EXTT14=
EXTT15=
PLAYORDER=
